<?xml version="1.0" encoding="utf-8"?>
<!-- Generator: Adobe Illustrator 16.0.0, SVG Export Plug-In . SVG Version: 6.00 Build 0)  -->
<!DOCTYPE svg PUBLIC "-//W3C//DTD SVG 1.1//EN" "http://www.w3.org/Graphics/SVG/1.1/DTD/svg11.dtd">
<svg version="1.1" xmlns="http://www.w3.org/2000/svg" xmlns:xlink="http://www.w3.org/1999/xlink" x="0px" y="0px" width="16px"
	 height="16px" viewBox="0 0 16 16" enable-background="new 0 0 16 16" xml:space="preserve">
<g id="Layer_2">
	<rect fill="#48ACBB" width="16" height="16"/>
</g>
<g id="Layer_1">
	<g>
		<rect x="14.243" y="9.819" fill="#CBCCCE" width="0.594" height="0.595"/>
		<rect x="14.243" y="9.225" fill="#CBCCCE" width="0.594" height="0.595"/>
		<rect x="14.243" y="8.63" fill="#CBCCCE" width="0.594" height="0.595"/>
		<rect x="14.243" y="8.035" fill="#CBCCCE" width="0.594" height="0.595"/>
		<rect x="14.243" y="7.441" fill="#CBCCCE" width="0.594" height="0.594"/>
		<rect x="14.243" y="6.847" fill="#CBCCCE" width="0.594" height="0.594"/>
		<rect x="14.243" y="6.252" fill="#CBCCCE" width="0.594" height="0.594"/>
		<rect x="14.243" y="5.658" fill="#CBCCCE" width="0.594" height="0.595"/>
		<rect x="13.648" y="10.414" fill="#CBCCCE" width="0.595" height="0.595"/>
		<rect x="13.648" y="9.819" fill="#CBCCCE" width="0.595" height="0.595"/>
		<rect x="13.648" y="9.225" fill="#CBCCCE" width="0.595" height="0.595"/>
		<rect x="13.648" y="8.63" fill="#B8BABC" width="0.595" height="0.595"/>
		<rect x="13.648" y="8.035" fill="#CBCCCE" width="0.595" height="0.595"/>
		<rect x="13.648" y="7.441" fill="#B8BABC" width="0.595" height="0.594"/>
		<rect x="13.648" y="6.847" fill="#CBCCCE" width="0.595" height="0.594"/>
		<rect x="13.648" y="6.252" fill="#B8BABC" width="0.595" height="0.594"/>
		<rect x="13.648" y="5.658" fill="#CBCCCE" width="0.595" height="0.595"/>
		<rect x="13.054" y="10.414" fill="#CBCCCE" width="0.595" height="0.595"/>
		<rect x="13.054" y="9.819" fill="#B8BABC" width="0.595" height="0.595"/>
		<rect x="13.054" y="9.225" fill="#CBCCCE" width="0.595" height="0.595"/>
		<rect x="13.054" y="8.63" fill="#CBCCCE" width="0.595" height="0.595"/>
		<rect x="13.054" y="8.035" fill="#CBCCCE" width="0.595" height="0.595"/>
		<rect x="13.054" y="7.441" fill="#CBCCCE" width="0.595" height="0.594"/>
		<rect x="13.054" y="6.847" fill="#CBCCCE" width="0.595" height="0.594"/>
		<rect x="13.054" y="6.252" fill="#CBCCCE" width="0.595" height="0.594"/>
		<rect x="13.054" y="5.658" fill="#CBCCCE" width="0.595" height="0.595"/>
		<rect x="12.46" y="10.414" fill="#CBCCCE" width="0.594" height="0.595"/>
		<rect x="12.46" y="9.819" fill="#CBCCCE" width="0.594" height="0.595"/>
		<rect x="12.46" y="9.225" fill="#CBCCCE" width="0.594" height="0.595"/>
		<rect x="12.46" y="8.63" fill="#B8BABC" width="0.594" height="0.595"/>
		<rect x="12.46" y="8.035" fill="#CBCCCE" width="0.594" height="0.595"/>
		<rect x="12.46" y="7.441" fill="#B8BABC" width="0.594" height="0.594"/>
		<rect x="12.46" y="6.847" fill="#CBCCCE" width="0.594" height="0.594"/>
		<rect x="12.46" y="6.252" fill="#B8BABC" width="0.594" height="0.594"/>
		<rect x="12.46" y="5.658" fill="#CBCCCE" width="0.594" height="0.595"/>
		<rect x="11.865" y="10.414" fill="#CBCCCE" width="0.595" height="0.595"/>
		<rect x="11.865" y="9.819" fill="#B8BABC" width="0.595" height="0.595"/>
		<rect x="11.865" y="9.225" fill="#CBCCCE" width="0.595" height="0.595"/>
		<rect x="11.865" y="8.63" fill="#CBCCCE" width="0.595" height="0.595"/>
		<rect x="11.865" y="8.035" fill="#CBCCCE" width="0.595" height="0.595"/>
		<rect x="11.865" y="7.441" fill="#CBCCCE" width="0.595" height="0.594"/>
		<rect x="11.865" y="6.847" fill="#CBCCCE" width="0.595" height="0.594"/>
		<rect x="11.865" y="6.252" fill="#CBCCCE" width="0.595" height="0.594"/>
		<rect x="11.865" y="5.658" fill="#CBCCCE" width="0.595" height="0.595"/>
		<rect x="11.271" y="10.414" fill="#CBCCCE" width="0.595" height="0.595"/>
		<rect x="11.271" y="9.819" fill="#CBCCCE" width="0.595" height="0.595"/>
		<rect x="11.271" y="9.225" fill="#CBCCCE" width="0.595" height="0.595"/>
		<rect x="11.271" y="8.63" fill="#B8BABC" width="0.595" height="0.595"/>
		<rect x="11.271" y="8.035" fill="#CBCCCE" width="0.595" height="0.595"/>
		<rect x="11.271" y="7.441" fill="#B8BABC" width="0.595" height="0.594"/>
		<rect x="11.271" y="6.847" fill="#CBCCCE" width="0.595" height="0.594"/>
		<rect x="11.271" y="6.252" fill="#B8BABC" width="0.595" height="0.594"/>
		<rect x="11.271" y="5.658" fill="#CBCCCE" width="0.595" height="0.595"/>
		<rect x="10.676" y="10.414" fill="#CBCCCE" width="0.595" height="0.595"/>
		<rect x="10.676" y="9.819" fill="#B8BABC" width="0.595" height="0.595"/>
		<rect x="10.676" y="9.225" fill="#CBCCCE" width="0.595" height="0.595"/>
		<rect x="10.676" y="8.63" fill="#CBCCCE" width="0.595" height="0.595"/>
		<rect x="10.676" y="8.035" fill="#CBCCCE" width="0.595" height="0.595"/>
		<rect x="10.676" y="7.441" fill="#CBCCCE" width="0.595" height="0.594"/>
		<rect x="10.676" y="6.847" fill="#CBCCCE" width="0.595" height="0.594"/>
		<rect x="10.676" y="6.252" fill="#CBCCCE" width="0.595" height="0.594"/>
		<rect x="10.676" y="5.658" fill="#CBCCCE" width="0.595" height="0.595"/>
		<rect x="10.082" y="10.414" fill="#CBCCCE" width="0.594" height="0.595"/>
		<rect x="10.082" y="9.819" fill="#CBCCCE" width="0.594" height="0.595"/>
		<rect x="10.082" y="9.225" fill="#CBCCCE" width="0.594" height="0.595"/>
		<rect x="10.082" y="8.63" fill="#B8BABC" width="0.594" height="0.595"/>
		<rect x="10.082" y="8.035" fill="#CBCCCE" width="0.594" height="0.595"/>
		<rect x="10.082" y="7.441" fill="#B8BABC" width="0.594" height="0.594"/>
		<rect x="10.082" y="6.847" fill="#B8BABC" width="0.594" height="0.594"/>
		<rect x="10.082" y="6.252" fill="#B8BABC" width="0.594" height="0.594"/>
		<rect x="10.082" y="5.658" fill="#CBCCCE" width="0.594" height="0.595"/>
		<rect x="9.487" y="10.414" fill="#CBCCCE" width="0.595" height="0.595"/>
		<rect x="9.487" y="9.819" fill="#B8BABC" width="0.595" height="0.595"/>
		<rect x="9.487" y="9.225" fill="#CBCCCE" width="0.595" height="0.595"/>
		<rect x="9.487" y="8.63" fill="#CBCCCE" width="0.595" height="0.595"/>
		<rect x="9.487" y="8.035" fill="#CBCCCE" width="0.595" height="0.595"/>
		<rect x="9.487" y="7.441" fill="#B8BABC" width="0.595" height="0.594"/>
		<rect x="9.487" y="6.847" fill="#CBCCCE" width="0.595" height="0.594"/>
		<rect x="9.487" y="6.252" fill="#CBCCCE" width="0.595" height="0.594"/>
		<rect x="9.487" y="5.658" fill="#CBCCCE" width="0.595" height="0.595"/>
		<rect x="9.487" y="5.063" fill="#9B9DA0" width="0.595" height="0.594"/>
		<rect x="8.893" y="10.414" fill="#CBCCCE" width="0.595" height="0.595"/>
		<rect x="8.893" y="9.819" fill="#CBCCCE" width="0.595" height="0.595"/>
		<rect x="8.893" y="9.225" fill="#CBCCCE" width="0.595" height="0.595"/>
		<rect x="8.893" y="8.63" fill="#B8BABC" width="0.595" height="0.595"/>
		<rect x="8.893" y="8.035" fill="#CBCCCE" width="0.595" height="0.595"/>
		<rect x="8.893" y="7.441" fill="#B8BABC" width="0.595" height="0.594"/>
		<rect x="8.893" y="6.847" fill="#CBCCCE" width="0.595" height="0.594"/>
		<rect x="8.893" y="6.252" fill="#B8BABC" width="0.595" height="0.594"/>
		<rect x="8.893" y="5.658" fill="#CBCCCE" width="0.595" height="0.595"/>
		<rect x="8.893" y="5.063" fill="#9B9DA0" width="0.595" height="0.594"/>
		<rect x="8.893" y="4.469" fill="#B8BABC" width="0.595" height="0.594"/>
		<rect x="8.297" y="10.414" fill="#CBCCCE" width="0.595" height="0.595"/>
		<rect x="8.297" y="9.819" fill="#B8BABC" width="0.595" height="0.595"/>
		<rect x="8.297" y="9.225" fill="#CBCCCE" width="0.595" height="0.595"/>
		<rect x="8.297" y="8.63" fill="#CBCCCE" width="0.595" height="0.595"/>
		<rect x="8.297" y="8.035" fill="#CBCCCE" width="0.595" height="0.595"/>
		<rect x="8.297" y="7.441" fill="#CBCCCE" width="0.595" height="0.594"/>
		<rect x="8.297" y="6.847" fill="#CBCCCE" width="0.595" height="0.594"/>
		<rect x="8.297" y="6.252" fill="#CBCCCE" width="0.595" height="0.594"/>
		<rect x="8.297" y="5.658" fill="#CBCCCE" width="0.595" height="0.595"/>
		<rect x="8.297" y="4.469" fill="#B8BABC" width="0.595" height="0.594"/>
		<rect x="8.297" y="3.875" fill="#B8BABC" width="0.595" height="0.595"/>
		<rect x="7.704" y="10.414" fill="#CBCCCE" width="0.593" height="0.595"/>
		<rect x="7.704" y="9.819" fill="#B8BABC" width="0.593" height="0.595"/>
		<rect x="7.704" y="9.225" fill="#CBCCCE" width="0.593" height="0.595"/>
		<rect x="7.704" y="8.63" fill="#B8BABC" width="0.593" height="0.595"/>
		<rect x="7.704" y="8.035" fill="#CBCCCE" width="0.593" height="0.595"/>
		<rect x="7.704" y="7.441" fill="#B8BABC" width="0.593" height="0.594"/>
		<rect x="7.704" y="6.847" fill="#CBCCCE" width="0.593" height="0.594"/>
		<rect x="7.704" y="6.252" fill="#B8BABC" width="0.593" height="0.594"/>
		<rect x="7.704" y="5.658" fill="#CBCCCE" width="0.593" height="0.595"/>
		<rect x="7.704" y="3.875" fill="#B8BABC" width="0.593" height="0.595"/>
		<rect x="7.704" y="3.28" fill="#B8BABC" width="0.593" height="0.595"/>
		<rect x="7.109" y="10.414" fill="#CBCCCE" width="0.595" height="0.595"/>
		<rect x="7.109" y="9.819" fill="#B8BABC" width="0.595" height="0.595"/>
		<rect x="7.109" y="9.225" fill="#CBCCCE" width="0.595" height="0.595"/>
		<rect x="7.109" y="8.63" fill="#CBCCCE" width="0.595" height="0.595"/>
		<rect x="7.109" y="8.035" fill="#CBCCCE" width="0.595" height="0.595"/>
		<rect x="7.109" y="7.441" fill="#CBCCCE" width="0.595" height="0.594"/>
		<rect x="7.109" y="6.847" fill="#CBCCCE" width="0.595" height="0.594"/>
		<rect x="7.109" y="6.252" fill="#CBCCCE" width="0.595" height="0.594"/>
		<rect x="7.109" y="5.658" fill="#CBCCCE" width="0.595" height="0.595"/>
		<rect x="6.515" y="10.414" fill="#CBCCCE" width="0.594" height="0.595"/>
		<rect x="6.515" y="9.819" fill="#B8BABC" width="0.594" height="0.595"/>
		<rect x="6.515" y="9.225" fill="#CBCCCE" width="0.594" height="0.595"/>
		<rect x="6.515" y="8.63" fill="#B8BABC" width="0.594" height="0.595"/>
		<rect x="6.515" y="8.035" fill="#CBCCCE" width="0.594" height="0.595"/>
		<rect x="6.515" y="7.441" fill="#B8BABC" width="0.594" height="0.594"/>
		<rect x="6.515" y="6.847" fill="#CBCCCE" width="0.594" height="0.594"/>
		<rect x="6.515" y="6.252" fill="#B8BABC" width="0.594" height="0.594"/>
		<rect x="6.515" y="5.658" fill="#CBCCCE" width="0.594" height="0.595"/>
		<rect x="5.92" y="10.414" fill="#CBCCCE" width="0.595" height="0.595"/>
		<rect x="5.92" y="9.819" fill="#B8BABC" width="0.595" height="0.595"/>
		<rect x="5.92" y="9.225" fill="#CBCCCE" width="0.595" height="0.595"/>
		<rect x="5.92" y="8.63" fill="#CBCCCE" width="0.595" height="0.595"/>
		<rect x="5.92" y="8.035" fill="#CBCCCE" width="0.595" height="0.595"/>
		<rect x="5.92" y="7.441" fill="#CBCCCE" width="0.595" height="0.594"/>
		<rect x="5.92" y="6.847" fill="#CBCCCE" width="0.595" height="0.594"/>
		<rect x="5.92" y="6.252" fill="#CBCCCE" width="0.595" height="0.594"/>
		<rect x="5.92" y="5.658" fill="#CBCCCE" width="0.595" height="0.595"/>
		<rect x="5.325" y="10.414" fill="#CBCCCE" width="0.595" height="0.595"/>
		<rect x="5.325" y="9.819" fill="#B8BABC" width="0.595" height="0.595"/>
		<rect x="5.325" y="9.225" fill="#CBCCCE" width="0.595" height="0.595"/>
		<rect x="5.325" y="8.63" fill="#B8BABC" width="0.595" height="0.595"/>
		<rect x="5.325" y="8.035" fill="#CBCCCE" width="0.595" height="0.595"/>
		<rect x="5.325" y="7.441" fill="#B8BABC" width="0.595" height="0.594"/>
		<rect x="5.325" y="6.847" fill="#CBCCCE" width="0.595" height="0.594"/>
		<rect x="5.325" y="6.252" fill="#B8BABC" width="0.595" height="0.594"/>
		<rect x="5.325" y="5.658" fill="#CBCCCE" width="0.595" height="0.595"/>
		<rect x="4.731" y="10.414" fill="#CBCCCE" width="0.594" height="0.595"/>
		<rect x="4.731" y="9.819" fill="#B8BABC" width="0.594" height="0.595"/>
		<rect x="4.731" y="9.225" fill="#CBCCCE" width="0.594" height="0.595"/>
		<rect x="4.731" y="8.63" fill="#CBCCCE" width="0.594" height="0.595"/>
		<rect x="4.731" y="8.035" fill="#CBCCCE" width="0.594" height="0.595"/>
		<rect x="4.731" y="7.441" fill="#CBCCCE" width="0.594" height="0.594"/>
		<rect x="4.731" y="6.847" fill="#CBCCCE" width="0.594" height="0.594"/>
		<rect x="4.731" y="6.252" fill="#CBCCCE" width="0.594" height="0.594"/>
		<rect x="4.731" y="5.658" fill="#CBCCCE" width="0.594" height="0.595"/>
		<rect x="4.137" y="10.414" fill="#CBCCCE" width="0.594" height="0.595"/>
		<rect x="4.137" y="9.819" fill="#CBCCCE" width="0.594" height="0.595"/>
		<rect x="4.137" y="9.225" fill="#CBCCCE" width="0.594" height="0.595"/>
		<rect x="4.137" y="8.63" fill="#B8BABC" width="0.594" height="0.595"/>
		<rect x="4.137" y="8.035" fill="#CBCCCE" width="0.594" height="0.595"/>
		<rect x="4.137" y="7.441" fill="#B8BABC" width="0.594" height="0.594"/>
		<rect x="4.137" y="6.847" fill="#CBCCCE" width="0.594" height="0.594"/>
		<rect x="4.137" y="6.252" fill="#B8BABC" width="0.594" height="0.594"/>
		<rect x="4.137" y="5.658" fill="#CBCCCE" width="0.594" height="0.595"/>
		<rect x="3.542" y="10.414" fill="#CBCCCE" width="0.595" height="0.595"/>
		<rect x="3.542" y="9.819" fill="#B8BABC" width="0.595" height="0.595"/>
		<rect x="3.542" y="9.225" fill="#CBCCCE" width="0.595" height="0.595"/>
		<rect x="3.542" y="8.63" fill="#CBCCCE" width="0.595" height="0.595"/>
		<rect x="3.542" y="8.035" fill="#CBCCCE" width="0.595" height="0.595"/>
		<rect x="3.542" y="7.441" fill="#CBCCCE" width="0.595" height="0.594"/>
		<rect x="3.542" y="6.847" fill="#CBCCCE" width="0.595" height="0.594"/>
		<rect x="3.542" y="6.252" fill="#CBCCCE" width="0.595" height="0.594"/>
		<rect x="3.542" y="5.658" fill="#CBCCCE" width="0.595" height="0.595"/>
		<rect x="2.948" y="10.414" fill="#CBCCCE" width="0.594" height="0.595"/>
		<rect x="2.948" y="9.819" fill="#CBCCCE" width="0.594" height="0.595"/>
		<rect x="2.948" y="9.225" fill="#CBCCCE" width="0.594" height="0.595"/>
		<rect x="2.948" y="8.63" fill="#B8BABC" width="0.594" height="0.595"/>
		<rect x="2.948" y="8.035" fill="#CBCCCE" width="0.594" height="0.595"/>
		<rect x="2.948" y="7.441" fill="#B8BABC" width="0.594" height="0.594"/>
		<rect x="2.948" y="6.847" fill="#CBCCCE" width="0.594" height="0.594"/>
		<rect x="2.948" y="6.252" fill="#B8BABC" width="0.594" height="0.594"/>
		<rect x="2.948" y="5.658" fill="#CBCCCE" width="0.594" height="0.595"/>
		<rect x="2.354" y="10.414" fill="#CBCCCE" width="0.594" height="0.595"/>
		<rect x="2.354" y="9.819" fill="#B8BABC" width="0.594" height="0.595"/>
		<rect x="2.354" y="9.225" fill="#CBCCCE" width="0.594" height="0.595"/>
		<rect x="2.354" y="8.63" fill="#CBCCCE" width="0.594" height="0.595"/>
		<rect x="2.354" y="8.035" fill="#CBCCCE" width="0.594" height="0.595"/>
		<rect x="2.354" y="7.441" fill="#CBCCCE" width="0.594" height="0.594"/>
		<rect x="2.354" y="6.847" fill="#CBCCCE" width="0.594" height="0.594"/>
		<rect x="2.354" y="6.252" fill="#CBCCCE" width="0.594" height="0.594"/>
		<rect x="2.354" y="5.658" fill="#CBCCCE" width="0.594" height="0.595"/>
		<rect x="1.759" y="10.414" fill="#CBCCCE" width="0.595" height="0.595"/>
		<rect x="1.759" y="9.819" fill="#CBCCCE" width="0.595" height="0.595"/>
		<rect x="1.759" y="9.225" fill="#CBCCCE" width="0.595" height="0.595"/>
		<rect x="1.759" y="8.63" fill="#B8BABC" width="0.595" height="0.595"/>
		<rect x="1.759" y="8.035" fill="#CBCCCE" width="0.595" height="0.595"/>
		<rect x="1.759" y="7.441" fill="#B8BABC" width="0.595" height="0.594"/>
		<rect x="1.759" y="6.847" fill="#CBCCCE" width="0.595" height="0.594"/>
		<rect x="1.759" y="6.252" fill="#B8BABC" width="0.595" height="0.594"/>
		<rect x="1.759" y="5.658" fill="#CBCCCE" width="0.595" height="0.595"/>
		<rect x="1.164" y="9.819" fill="#CBCCCE" width="0.595" height="0.595"/>
		<rect x="1.164" y="9.225" fill="#CBCCCE" width="0.595" height="0.595"/>
		<rect x="1.164" y="8.63" fill="#CBCCCE" width="0.595" height="0.595"/>
		<rect x="1.164" y="8.035" fill="#CBCCCE" width="0.595" height="0.595"/>
		<rect x="1.164" y="7.441" fill="#CBCCCE" width="0.595" height="0.594"/>
		<rect x="1.164" y="6.847" fill="#CBCCCE" width="0.595" height="0.594"/>
		<rect x="1.164" y="6.252" fill="#CBCCCE" width="0.595" height="0.594"/>
		<rect x="1.164" y="5.658" fill="#CBCCCE" width="0.595" height="0.595"/>
	</g>
</g>
</svg>
